<svg xmlns="http://www.w3.org/2000/svg" xmlns:xlink="http://www.w3.org/1999/xlink" width="500" zoomAndPan="magnify" viewBox="0 0 375 374.999991" height="500" preserveAspectRatio="xMidYMid meet" version="1.0"><defs><g/></defs><path stroke-linecap="butt" transform="matrix(0.75, 0, 0, 0.75, -38.620609, 137.10229)" fill="none" stroke-linejoin="miter" d="M 151.910822 54.931325 L 152.176447 54.931325 L 157.999365 -1.303054 L 191.421242 -1.303054 L 191.421242 94.999036 L 170.379574 94.999036 L 170.379574 23.519865 L 170.119157 23.519865 L 159.744156 94.999036 L 144.108739 94.999036 L 133.702488 23.519865 L 133.442071 23.519865 L 133.442071 94.999036 L 112.400403 94.999036 L 112.400403 -1.303054 L 145.457697 -1.303054 Z M 226.103536 36.889657 L 226.369161 36.889657 L 232.426453 -1.303054 L 255.639996 -1.303054 L 237.692078 59.801117 L 237.692078 94.999036 L 213.692077 94.999036 L 213.692077 59.936534 L 195.749367 -1.303054 L 218.957702 -1.303054 Z M 301.749374 18.118823 L 284.75979 18.118823 L 284.75979 35.801115 L 299.317082 35.801115 L 299.317082 54.405283 L 284.75979 54.405283 L 284.75979 94.999036 L 259.936871 94.999036 L 259.936871 -1.303054 L 301.749374 -1.303054 Z M 334.509793 13.936531 C 343.598335 13.936531 350.587919 16.254239 355.483752 20.884448 C 360.374378 25.519865 362.822295 31.749032 362.822295 39.587574 L 362.822295 71.394868 C 362.822295 79.228202 360.374378 85.462577 355.483752 90.092786 C 350.587919 94.702161 343.598335 97.009453 334.509793 97.009453 C 325.442084 97.009453 318.4525 94.702161 313.535833 90.092786 C 308.639999 85.462577 306.192083 79.228202 306.192083 71.394868 L 306.192083 39.587574 C 306.192083 31.749032 308.639999 25.519865 313.535833 20.884448 C 318.4525 16.254239 325.442084 13.936531 334.509793 13.936531 Z M 330.197293 33.499032 L 330.197293 75.837576 C 330.197293 77.285493 330.603543 78.48341 331.416043 79.426118 C 332.228543 80.368827 333.259793 80.842785 334.509793 80.842785 C 335.780626 80.842785 336.811876 80.368827 337.603543 79.426118 C 338.416043 78.48341 338.822293 77.285493 338.822293 75.837576 L 338.822293 33.499032 C 338.822293 32.071949 338.416043 30.884448 337.603543 29.94174 C 336.811876 28.999032 335.780626 28.525073 334.509793 28.525073 C 332.994168 28.525073 331.895209 29.082365 331.218126 30.202157 C 330.535834 31.321948 330.197293 32.420907 330.197293 33.499032 Z M 398.431672 13.936531 C 407.520214 13.936531 414.509798 16.254239 419.405632 20.884448 C 424.301465 25.519865 426.749382 31.749032 426.749382 39.587574 L 426.749382 71.394868 C 426.749382 79.228202 424.301465 85.462577 419.405632 90.092786 C 414.509798 94.702161 407.520214 97.009453 398.431672 97.009453 C 389.369171 97.009453 382.374379 94.702161 377.457712 90.092786 C 372.561879 85.462577 370.11917 79.228202 370.11917 71.394868 L 370.11917 39.587574 C 370.11917 31.749032 372.561879 25.519865 377.457712 20.884448 C 382.374379 16.254239 389.369171 13.936531 398.431672 13.936531 Z M 394.119172 33.499032 L 394.119172 75.837576 C 394.119172 77.285493 394.525422 78.48341 395.337922 79.426118 C 396.150422 80.368827 397.181672 80.842785 398.431672 80.842785 C 399.707714 80.842785 400.738964 80.368827 401.525422 79.426118 C 402.337922 78.48341 402.744172 77.285493 402.744172 75.837576 L 402.744172 33.499032 C 402.744172 32.071949 402.337922 30.884448 401.525422 29.94174 C 400.738964 28.999032 399.707714 28.525073 398.431672 28.525073 C 396.916047 28.525073 395.822297 29.082365 395.140005 30.202157 C 394.457713 31.321948 394.119172 32.420907 394.119172 33.499032 Z M 490.541053 -1.303054 L 490.541053 94.999036 L 465.317093 94.999036 L 466.535843 90.290702 L 466.275426 90.290702 C 461.332718 94.769869 455.988967 97.009453 450.238967 97.009453 C 445.10355 97.009453 441.119175 95.483411 438.285841 92.431327 C 435.457716 89.379244 434.041049 85.025077 434.041049 79.35841 L 434.041049 32.41049 C 434.041049 20.097989 439.79105 13.936531 451.29105 13.936531 C 454.363967 13.936531 457.218134 14.597989 459.853551 15.915697 C 462.509801 17.207364 464.650426 19.030281 466.275426 21.379239 L 466.535843 21.379239 L 466.535843 -1.303054 Z M 458.041051 35.108407 L 458.041051 75.837576 C 458.041051 79.176118 459.348343 80.842785 461.962926 80.842785 C 463.582718 80.842785 464.749385 80.457368 465.45251 79.691743 C 466.176468 78.92091 466.535843 77.681327 466.535843 75.967785 L 466.535843 34.978199 C 466.535843 32.827157 466.176468 31.342782 465.45251 30.53549 C 464.749385 29.72299 463.67126 29.31674 462.223343 29.31674 C 460.796259 29.31674 459.744176 29.743823 459.061884 30.59799 C 458.384801 31.457365 458.041051 32.957365 458.041051 35.108407 Z M 458.041051 35.108407 " stroke="#ffffff" stroke-width="10.1145" stroke-opacity="1" stroke-miterlimit="4"/><g fill="#000000" fill-opacity="1"><g transform="translate(43.45751, 208.352286)"><g><path d="M 31.859375 -30.03125 L 32.0625 -30.03125 L 36.40625 -72.21875 L 61.5 -72.21875 L 61.5 0 L 45.71875 0 L 45.71875 -53.609375 L 45.515625 -53.609375 L 37.71875 0 L 26 0 L 18.203125 -53.609375 L 18 -53.609375 L 18 0 L 2.21875 0 L 2.21875 -72.21875 L 27 -72.21875 Z M 31.859375 -30.03125 "/></g></g></g><g fill="#000000" fill-opacity="1"><g transform="translate(108.189992, 208.352286)"><g><path d="M 22.75 -43.59375 L 22.953125 -43.59375 L 27.515625 -72.21875 L 44.90625 -72.21875 L 31.453125 -26.390625 L 31.453125 0 L 13.453125 0 L 13.453125 -26.296875 L 0 -72.21875 L 17.390625 -72.21875 Z M 22.75 -43.59375 "/></g></g></g><g fill="#000000" fill-opacity="1"><g transform="translate(154.109591, 208.352286)"><g><path d="M 33.578125 -57.65625 L 20.828125 -57.65625 L 20.828125 -44.40625 L 31.765625 -44.40625 L 31.765625 -30.4375 L 20.828125 -30.4375 L 20.828125 0 L 2.21875 0 L 2.21875 -72.21875 L 33.578125 -72.21875 Z M 33.578125 -57.65625 "/></g></g></g><g fill="#000000" fill-opacity="1"><g transform="translate(188.802158, 208.352286)"><g><path d="M 23.46875 -60.78125 C 30.28125 -60.78125 35.519531 -59.046875 39.1875 -55.578125 C 42.863281 -52.109375 44.703125 -47.4375 44.703125 -41.5625 L 44.703125 -17.703125 C 44.703125 -11.835938 42.863281 -7.164062 39.1875 -3.6875 C 35.519531 -0.21875 30.28125 1.515625 23.46875 1.515625 C 16.65625 1.515625 11.410156 -0.21875 7.734375 -3.6875 C 4.054688 -7.164062 2.21875 -11.835938 2.21875 -17.703125 L 2.21875 -41.5625 C 2.21875 -47.4375 4.054688 -52.109375 7.734375 -55.578125 C 11.410156 -59.046875 16.65625 -60.78125 23.46875 -60.78125 Z M 20.234375 -46.125 L 20.234375 -14.359375 C 20.234375 -13.285156 20.535156 -12.394531 21.140625 -11.6875 C 21.742188 -10.976562 22.519531 -10.625 23.46875 -10.625 C 24.40625 -10.625 25.175781 -10.976562 25.78125 -11.6875 C 26.394531 -12.394531 26.703125 -13.285156 26.703125 -14.359375 L 26.703125 -46.125 C 26.703125 -47.195312 26.394531 -48.085938 25.78125 -48.796875 C 25.175781 -49.503906 24.40625 -49.859375 23.46875 -49.859375 C 22.320312 -49.859375 21.492188 -49.4375 20.984375 -48.59375 C 20.484375 -47.75 20.234375 -46.925781 20.234375 -46.125 Z M 20.234375 -46.125 "/></g></g></g><g fill="#000000" fill-opacity="1"><g transform="translate(236.744637, 208.352286)"><g><path d="M 23.46875 -60.78125 C 30.28125 -60.78125 35.519531 -59.046875 39.1875 -55.578125 C 42.863281 -52.109375 44.703125 -47.4375 44.703125 -41.5625 L 44.703125 -17.703125 C 44.703125 -11.835938 42.863281 -7.164062 39.1875 -3.6875 C 35.519531 -0.21875 30.28125 1.515625 23.46875 1.515625 C 16.65625 1.515625 11.410156 -0.21875 7.734375 -3.6875 C 4.054688 -7.164062 2.21875 -11.835938 2.21875 -17.703125 L 2.21875 -41.5625 C 2.21875 -47.4375 4.054688 -52.109375 7.734375 -55.578125 C 11.410156 -59.046875 16.65625 -60.78125 23.46875 -60.78125 Z M 20.234375 -46.125 L 20.234375 -14.359375 C 20.234375 -13.285156 20.535156 -12.394531 21.140625 -11.6875 C 21.742188 -10.976562 22.519531 -10.625 23.46875 -10.625 C 24.40625 -10.625 25.175781 -10.976562 25.78125 -11.6875 C 26.394531 -12.394531 26.703125 -13.285156 26.703125 -14.359375 L 26.703125 -46.125 C 26.703125 -47.195312 26.394531 -48.085938 25.78125 -48.796875 C 25.175781 -49.503906 24.40625 -49.859375 23.46875 -49.859375 C 22.320312 -49.859375 21.492188 -49.4375 20.984375 -48.59375 C 20.484375 -47.75 20.234375 -46.925781 20.234375 -46.125 Z M 20.234375 -46.125 "/></g></g></g><g fill="#000000" fill-opacity="1"><g transform="translate(284.687116, 208.352286)"><g><path d="M 44.609375 -72.21875 L 44.609375 0 L 25.6875 0 L 26.59375 -3.546875 L 26.390625 -3.546875 C 22.679688 -0.171875 18.671875 1.515625 14.359375 1.515625 C 10.515625 1.515625 7.53125 0.367188 5.40625 -1.921875 C 3.28125 -4.210938 2.21875 -7.484375 2.21875 -11.734375 L 2.21875 -46.921875 C 2.21875 -56.160156 6.535156 -60.78125 15.171875 -60.78125 C 17.460938 -60.78125 19.601562 -60.289062 21.59375 -59.3125 C 23.582031 -58.34375 25.179688 -56.976562 26.390625 -55.21875 L 26.59375 -55.21875 L 26.59375 -72.21875 Z M 20.234375 -44.90625 L 20.234375 -14.359375 C 20.234375 -11.867188 21.207031 -10.625 23.15625 -10.625 C 24.375 -10.625 25.25 -10.910156 25.78125 -11.484375 C 26.320312 -12.054688 26.59375 -12.984375 26.59375 -14.265625 L 26.59375 -45 C 26.59375 -46.625 26.320312 -47.738281 25.78125 -48.34375 C 25.25 -48.945312 24.441406 -49.25 23.359375 -49.25 C 22.285156 -49.25 21.492188 -48.925781 20.984375 -48.28125 C 20.484375 -47.644531 20.234375 -46.519531 20.234375 -44.90625 Z M 20.234375 -44.90625 "/></g></g></g></svg>