<svg xmlns="http://www.w3.org/2000/svg" width="500" viewBox="0 0 375 375" height="500" version="1.0"><path fill="none" d="M75.313 178.3h.199l4.367-42.175h25.066v72.227h-15.78v-53.61h-.196l-7.781 53.61H69.46l-7.805-53.61h-.195v53.61H45.68v-72.227h24.793zm55.644-13.53h.2l4.542-28.645h17.41l-13.46 45.828v26.399h-18v-26.297l-13.458-45.93h17.407zm56.734-14.079H174.95v13.262h10.918v13.953H174.95v30.446h-18.617v-72.227h31.36zm24.57-3.136c6.817 0 12.06 1.738 15.731 5.21 3.668 3.477 5.504 8.15 5.504 14.028v23.855c0 5.875-1.836 10.551-5.504 14.024-3.672 3.457-8.914 5.187-15.73 5.187-6.801 0-12.043-1.73-15.73-5.187-3.673-3.473-5.509-8.149-5.509-14.024v-23.855c0-5.879 1.836-10.55 5.508-14.027 3.688-3.473 8.93-5.211 15.73-5.211zm-3.234 14.672v31.753c0 1.086.305 1.985.914 2.692.61.707 1.383 1.062 2.32 1.062.954 0 1.727-.355 2.321-1.062.61-.707.914-1.606.914-2.692v-31.753c0-1.07-.305-1.961-.914-2.668-.594-.707-1.367-1.063-2.32-1.063-1.137 0-1.961.418-2.469 1.258-.512.84-.766 1.664-.766 2.473zm51.176-14.672c6.817 0 12.059 1.738 15.73 5.21 3.672 3.477 5.508 8.15 5.508 14.028v23.855c0 5.875-1.836 10.551-5.507 14.024-3.672 3.457-8.914 5.187-15.73 5.187-6.798 0-12.044-1.73-15.731-5.187-3.672-3.473-5.504-8.149-5.504-14.024v-23.855c0-5.879 1.832-10.55 5.504-14.027 3.687-3.473 8.933-5.211 15.73-5.211zm-3.234 14.672v31.753c0 1.086.304 1.985.914 2.692.61.707 1.383 1.062 2.32 1.062.957 0 1.73-.355 2.32-1.062.61-.707.915-1.606.915-2.692v-31.753c0-1.07-.305-1.961-.915-2.668-.59-.707-1.363-1.063-2.32-1.063-1.137 0-1.957.418-2.469 1.258-.511.84-.765 1.664-.765 2.473zm72.316-26.102v72.227h-18.918l.914-3.532h-.195c-3.707 3.36-7.715 5.04-12.027 5.04-3.852 0-6.84-1.145-8.965-3.434-2.121-2.29-3.184-5.555-3.184-9.805v-35.21c0-9.235 4.313-13.856 12.938-13.856 2.304 0 4.445.496 6.422 1.484 1.992.969 3.597 2.336 4.816 4.098h.195v-17.012zm-24.375 27.309v30.546c0 2.504.98 3.754 2.942 3.754 1.214 0 2.09-.289 2.617-.863.543-.578.812-1.508.812-2.793v-30.742c0-1.613-.27-2.727-.812-3.332-.528-.61-1.336-.914-2.422-.914-1.07 0-1.86.32-2.371.96-.508.645-.766 1.77-.766 3.384zm0 0" stroke="#fff" stroke-width="7.585500000000001"/><path d="M75.317 178.321h.203l4.344-42.187h25.094v72.218H89.176v-53.61h-.203l-7.797 53.61H69.458l-7.797-53.61h-.203v53.61H45.676v-72.218h24.782zM130.94 164.759h.203l4.563-28.625h17.39l-13.453 45.828v26.39h-18v-26.297l-13.453-45.921h17.39zM187.688 150.696h-12.75v13.25h10.937v13.969h-10.937v30.437h-18.61v-72.218h31.36zM212.27 147.571c6.813 0 12.052 1.734 15.72 5.203 3.675 3.469 5.515 8.14 5.515 14.016v23.86c0 5.866-1.84 10.538-5.515 14.015-3.668 3.469-8.907 5.203-15.72 5.203-6.812 0-12.058-1.734-15.733-5.203-3.68-3.477-5.516-8.149-5.516-14.016v-23.86c0-5.874 1.836-10.546 5.516-14.015 3.675-3.469 8.921-5.203 15.734-5.203zm-3.233 14.656v31.766c0 1.074.3 1.965.906 2.672.601.71 1.379 1.062 2.328 1.062.937 0 1.707-.351 2.312-1.062.614-.707.922-1.598.922-2.672v-31.766c0-1.07-.308-1.96-.922-2.672-.605-.707-1.375-1.062-2.312-1.062-1.149 0-1.977.422-2.484 1.266-.5.843-.75 1.668-.75 2.468zM260.213 147.571c6.813 0 12.051 1.734 15.72 5.203 3.675 3.469 5.515 8.14 5.515 14.016v23.86c0 5.866-1.84 10.538-5.516 14.015-3.668 3.469-8.906 5.203-15.719 5.203-6.812 0-12.058-1.734-15.734-5.203-3.68-3.477-5.516-8.149-5.516-14.016v-23.86c0-5.874 1.836-10.546 5.516-14.015 3.676-3.469 8.922-5.203 15.734-5.203zm-3.234 14.656v31.766c0 1.074.3 1.965.906 2.672.602.71 1.38 1.062 2.328 1.062.938 0 1.707-.351 2.313-1.062.613-.707.922-1.598.922-2.672v-31.766c0-1.07-.309-1.96-.922-2.672-.606-.707-1.375-1.062-2.313-1.062-1.148 0-1.976.422-2.484 1.266-.5.843-.75 1.668-.75 2.468zM329.296 136.134v72.218h-18.921l.906-3.547h-.203c-3.711 3.375-7.719 5.063-12.032 5.063-3.843 0-6.828-1.149-8.953-3.438-2.125-2.289-3.187-5.562-3.187-9.812V161.43c0-9.238 4.316-13.859 12.953-13.859 2.29 0 4.43.492 6.422 1.469 1.988.969 3.586 2.336 4.797 4.094h.203v-17zm-24.375 27.312v30.547c0 2.492.973 3.734 2.922 3.734 1.22 0 2.094-.285 2.625-.86.54-.57.813-1.5.813-2.78v-30.735c0-1.625-.274-2.738-.813-3.343-.53-.602-1.34-.907-2.422-.907-1.074 0-1.867.325-2.375.969-.5.637-.75 1.762-.75 3.375zm0 0"/></svg>